<?xml version="1.0" encoding="UTF-8"?>
<svg xmlns="http://www.w3.org/2000/svg" version="1.1" viewBox="0 0 500 500">
  <defs>
    <style>
      .cls-1 {
        fill: none;
        stroke: #242144;
        stroke-linecap: round;
        stroke-miterlimit: 10;
        stroke-width: 4px;
      }
    </style>
  </defs>
  <!-- Generator: Adobe Illustrator 28.7.3, SVG Export Plug-In . SVG Version: 1.2.0 Build 164)  -->
  <g>
    <g id="_레이어_4" data-name="레이어_4">
      <path class="cls-1" d="M9.69,145.04s4.12,3.4,14.84-2.79,36.98-20.94,49.06-54.01c12.08-33.06,9.45-56.12,4.32-61.02s-10.91,3.3-12.56,16.49c-1.65,13.19-20.21,143.05-20.62,151.3-.37,7.58,3.16-50.99,24.56-63.32,2.8-1.61,10.86-1.11,9.53,13.64-1.24,13.74-12.95,50.8-.91,52.15,14.65,1.65,36.09-37.93,39.69-49.47,3.26-10.44,8.66-32.16-2.42-33.39s-24.05,34.05-17.95,53.8c3.42,11.06,11.4,20.08,20.58,18.51,22.29-3.8,34.64-44.83,41.8-75.27,7.16-30.43,13.67-65.41,7.28-69.6s-12.11,13.96-16.54,30.1c-4.88,17.73-11.2,80.47,2.82,95.07,14.02,14.59,36.88-35.98,45.56-58.93,10.03-26.55,13.88-63.49,5.1-65.41-10.52-2.31-20.56,59.78-18.91,83.69,1.65,23.91,2.16,45.45,20.67,35.04,21.36-12.01,27.79-52.2,17.79-49.22-5.82,1.73-12.19,44.27,9.92,48.4,22.11,4.12,27.91-40.59,19.45-59.87-8.46-19.28-24.13-3.62-16.3,13.29s24.24,6.54,29,2.34c8.04-7.11,13.47-16.4,9.76-38.02"/>
    </g>
  </g>
</svg>